<?xml version="1.0" standalone="no"?>
<!DOCTYPE svg PUBLIC "-//W3C//DTD SVG 20010904//EN"
 "http://www.w3.org/TR/2001/REC-SVG-20010904/DTD/svg10.dtd">
<svg version="1.0" xmlns="http://www.w3.org/2000/svg"
 width="1024.000000pt" height="1024.000000pt" viewBox="0 0 1024.000000 1024.000000"
 preserveAspectRatio="xMidYMid meet">

<g transform="translate(0.000000,1024.000000) scale(0.100000,-0.100000)"
fill="#000000" stroke="none">
<path d="M3127 9590 c-78 -14 -177 -49 -261 -93 -206 -110 -352 -298 -411
-532 l-25 -98 0 -2486 c0 -2141 2 -2498 15 -2576 8 -49 39 -164 70 -255 65
-192 85 -295 85 -429 0 -132 -26 -245 -103 -451 -86 -231 -100 -286 -101 -400
-1 -85 2 -101 27 -152 32 -65 89 -121 156 -152 45 -21 60 -21 646 -26 l600 -5
2 -480 c1 -422 3 -486 17 -520 21 -50 50 -81 101 -108 39 -21 52 -22 469 -25
482 -3 493 -2 559 66 68 70 67 58 67 592 l0 480 180 0 180 0 0 -857 c0 -544 4
-871 10 -894 17 -61 52 -102 109 -131 l55 -28 399 0 c286 0 411 3 440 12 23 7
60 31 83 53 77 73 74 37 74 996 l0 848 523 3 c519 3 522 3 568 26 123 60 189
162 189 290 0 93 -22 200 -67 321 -96 262 -115 320 -129 405 -31 173 -10 316
85 601 88 263 81 18 81 2782 0 1752 -3 2475 -11 2526 -49 314 -287 579 -611
679 l-73 23 -1975 1 c-1086 1 -1996 -2 -2023 -6z m193 -3050 l0 -2610 -230 0
-230 0 0 2425 c0 1757 3 2439 11 2477 23 106 97 213 184 263 54 32 137 54 208
54 l57 1 0 -2610z m860 0 l0 -2610 -210 0 -210 0 0 2610 0 2610 210 0 210 0 0
-2610z m2896 2596 c123 -32 232 -125 276 -234 l23 -57 3 -2460 c2 -1710 -1
-2481 -8 -2530 -6 -38 -36 -142 -66 -231 -78 -232 -97 -329 -97 -499 0 -208
17 -281 142 -623 l41 -112 -2265 0 c-1824 0 -2265 2 -2265 13 0 17 36 146 66
240 l26 77 1861 0 c1787 0 1864 1 1903 19 167 76 174 324 11 406 l-51 25
-1812 0 -1812 0 -7 53 c-8 69 -33 216 -41 245 l-6 22 898 0 c883 0 900 1 944
21 90 41 133 107 134 205 0 48 -6 70 -27 107 -48 81 -105 107 -238 107 l-89 0
0 2610 0 2610 1203 0 c986 0 1211 -3 1253 -14z m-2456 -7544 c0 -192 -2 -351
-4 -353 -2 -2 -83 -3 -180 -1 l-176 3 0 349 0 350 180 0 180 0 0 -348z m1520
-397 l0 -745 -155 0 -155 0 0 738 c0 406 3 742 7 745 3 4 73 7 155 7 l148 0 0
-745z"/>
<path d="M5009 8696 c-81 -29 -121 -77 -134 -162 -12 -71 11 -286 39 -364 59
-171 208 -342 363 -418 l53 -26 0 -141 c0 -77 3 -163 6 -191 l7 -52 -54 -16
c-121 -35 -172 -96 -177 -210 -3 -66 -1 -75 30 -125 65 -107 173 -130 330 -69
l83 32 385 5 c382 6 385 6 423 29 71 45 107 115 107 209 0 92 -48 169 -130
207 -41 19 -69 21 -287 26 l-243 5 -27 27 c-23 24 -28 38 -31 96 -3 46 1 80
12 105 25 62 50 67 313 67 218 0 230 1 278 24 59 27 77 46 104 106 38 84 23
185 -36 251 -69 77 -47 73 -538 79 -426 5 -441 6 -480 26 -79 43 -99 86 -109
229 -9 116 -27 166 -79 212 -58 51 -135 65 -208 39z"/>
<path d="M5224 6545 c-78 -39 -114 -102 -114 -199 0 -28 9 -69 19 -92 22 -48
82 -101 131 -114 19 -6 126 -10 238 -10 l202 0 0 -222 c0 -215 1 -225 24 -275
34 -73 87 -106 175 -111 80 -4 138 21 185 81 l31 39 3 244 3 244 149 0 149 0
3 -309 3 -309 30 -43 c84 -119 267 -120 350 -1 l30 44 3 449 3 450 -27 48
c-28 53 -61 81 -113 99 -25 9 -224 12 -731 12 l-696 0 -50 -25z"/>
<path d="M5455 3911 c-162 -73 -163 -322 -2 -397 l52 -24 585 0 c544 0 588 2
625 19 173 78 174 334 3 406 -32 13 -117 15 -630 15 -552 0 -596 -2 -633 -19z"/>
</g>
</svg>
